<?xml version="1.0" encoding="utf-8"?>
<!-- Generator: Adobe Illustrator 22.1.0, SVG Export Plug-In . SVG Version: 6.00 Build 0)  -->
<svg version="1.1" id="Layer_1" xmlns="http://www.w3.org/2000/svg" xmlns:xlink="http://www.w3.org/1999/xlink" x="0px" y="0px"
	 viewBox="0 0 841.9 595.3" style="enable-background:new 0 0 841.9 595.3;" xml:space="preserve">
<style type="text/css">
	.st0{fill:#FFFFFF;}
</style>
<title>Artboard 1</title>
<path class="st0" d="M278.3,209.6c-34,0-61.8,26.4-64.4,60l34.7,14.5c3-2.1,6.6-3.2,10.3-3.2c0.3,0,0.7,0,1,0l15.4-22.5
	c0-0.1,0-0.2,0-0.3c0-13.6,10.9-24.6,24.4-24.6c13.5,0,24.4,11,24.4,24.6c0,13.6-11,24.6-24.4,24.6h-0.5l-22,15.8c0,0.3,0,0.6,0,0.9
	c0.1,10.1-8,18.4-18.1,18.5c-8.8,0.1-16.5-6.2-18.1-14.8l-24.8-10.3c7.7,27.4,32.6,47.5,62.2,47.5c35.7,0,64.7-29.2,64.7-65.3
	S314.1,209.6,278.3,209.6"/>
<path class="st0" d="M254.4,308.9l-7.9-3.3c3.4,6.8,11.6,9.6,18.4,6.2c6.8-3.4,9.6-11.6,6.2-18.4c-1.5-2.9-3.9-5.3-7-6.6
	c-3.2-1.4-6.9-1.4-10.1-0.2l8.2,3.4c5.2,2.2,7.6,8.2,5.4,13.3C265.5,308.5,259.6,311,254.4,308.9
	C254.5,308.9,254.4,308.9,254.4,308.9"/>
<path class="st0" d="M287.5,258.5c0.1-6.7,5.6-12.2,12.3-12.1c6.7,0.1,12.2,5.6,12.1,12.3c-0.1,6.7-5.5,12.1-12.2,12.1
	C292.9,270.8,287.5,265.3,287.5,258.5C287.5,258.5,287.5,258.5,287.5,258.5 M315.9,258.5c-0.1-9-7.4-16.2-16.4-16.1
	s-16.2,7.4-16.1,16.4c0.1,8.9,7.3,16.1,16.3,16.1C308.7,274.9,316,267.5,315.9,258.5"/>
<path class="st0" d="M410.9,254.9l-4.2,7.5c-3.4-2.3-7.4-3.6-11.5-3.7c-4.4,0-7.1,1.8-7.1,5.1c0,4,4.8,4.9,11.9,7.5
	c7.7,2.7,12.1,6,12.1,13.1c0,9.7-7.6,15.2-18.5,15.2c-5.3,0-11.7-1.4-16.6-4.4l3.1-8.3c4,2.1,8.5,3.3,13,3.4c5.7,0,8.5-2.1,8.5-5.3
	c0-3.6-4.2-4.7-10.9-7c-7.7-2.6-13-6-13-13.8c0-8.9,7.1-14,17.2-14C402.1,250.3,407.8,252.5,410.9,254.9"/>
<polygon class="st0" points="443.8,259.6 443.8,298.8 433.9,298.8 433.9,259.6 419.5,259.6 419.5,251.1 458.1,251.1 458.1,259.6 "/>
<polygon class="st0" points="479,259.6 479,270.4 497.9,270.4 497.9,278.9 479,278.9 479,290.1 501,290.1 501,298.8 469.1,298.8 
	469.1,251.1 501,251.1 501,259.6 "/>
<path class="st0" d="M532.2,262.4l-6.5,19.1h13L532.2,262.4z M523.1,289.5l-3.1,9.3h-10.4l17.7-47.7h10l18.2,47.7h-10.7l-3.2-9.3
	H523.1z"/>
<polygon class="st0" points="606.2,269.5 593.3,297.4 587.7,297.4 575,269.7 575,298.8 565.5,298.8 565.5,251.1 575,251.1 
	590.9,285.5 606.2,251.1 615.7,251.1 615.7,298.8 606.2,298.8 "/>
<path class="st0" d="M627.2,274.6h1.2c0.6,0.1,1.1-0.4,1.2-1c0,0,0-0.1,0-0.1c0-0.6-0.3-1-1.2-1h-1.2V274.6z M628.4,271.5
	c1.7,0,2.3,0.9,2.3,1.9c0,0.8-0.4,1.5-1.2,1.8l1.5,2.9h-1.2l-1.3-2.5h-1.3v2.5h-1v-6.6H628.4z M622.9,274.9c0,3.4,2.4,5.6,5.5,5.6
	s5.4-2.2,5.4-5.6c0-3.4-2.4-5.6-5.4-5.6c-2.9-0.1-5.4,2.2-5.5,5.1C622.9,274.6,622.9,274.8,622.9,274.9 M634.9,274.9
	c0,3.6-3,6.5-6.6,6.5c-3.6,0-6.5-3-6.5-6.6c0-3.6,3-6.5,6.6-6.5c3.5-0.1,6.5,2.8,6.5,6.3C634.9,274.7,634.9,274.8,634.9,274.9"/>
</svg>
